<?xml version="1.0" encoding="UTF-8" standalone="no"?>
<!-- Created with Inkscape (http://www.inkscape.org/) -->

<svg
   xmlns:dc="http://purl.org/dc/elements/1.1/"
   xmlns:cc="http://creativecommons.org/ns#"
   xmlns:rdf="http://www.w3.org/1999/02/22-rdf-syntax-ns#"
   xmlns:svg="http://www.w3.org/2000/svg"
   xmlns="http://www.w3.org/2000/svg"
   xmlns:sodipodi="http://sodipodi.sourceforge.net/DTD/sodipodi-0.dtd"
   xmlns:inkscape="http://www.inkscape.org/namespaces/inkscape"
   width="380"
   height="60"
   viewBox="0 0 100.54166 15.874996"
   version="1.1"
   id="svg7265"
   inkscape:export-filename="D:\Web\DosiplantNodeJS\public\images\logo horizontal2.png"
   inkscape:export-xdpi="432"
   inkscape:export-ydpi="432"
   inkscape:version="0.92.4 (5da689c313, 2019-01-14)"
   sodipodi:docname="logo.svg">
  <defs
     id="defs7259" />
  <sodipodi:namedview
     id="base"
     pagecolor="#ffffff"
     bordercolor="#666666"
     borderopacity="1.0"
     inkscape:pageopacity="0.0"
     inkscape:pageshadow="2"
     inkscape:zoom="2.8"
     inkscape:cx="128.94867"
     inkscape:cy="5.0357345"
     inkscape:document-units="mm"
     inkscape:current-layer="layer1"
     showgrid="false"
     units="px"
     inkscape:pagecheckerboard="true"
     inkscape:window-width="1366"
     inkscape:window-height="705"
     inkscape:window-x="-8"
     inkscape:window-y="-8"
     inkscape:window-maximized="1" />
  <metadata
     id="metadata7262">
    <rdf:RDF>
      <cc:Work
         rdf:about="">
        <dc:format>image/svg+xml</dc:format>
        <dc:type
           rdf:resource="http://purl.org/dc/dcmitype/StillImage" />
        <dc:title></dc:title>
      </cc:Work>
    </rdf:RDF>
  </metadata>
  <g
     inkscape:label="Capa 1"
     inkscape:groupmode="layer"
     id="layer1"
     transform="translate(0,-281.12505)">
    <path
       style="opacity:1;fill:#f9f9f9;fill-opacity:1;fill-rule:nonzero;stroke:#0a1efb;stroke-width:0.92283034;stroke-linecap:square;stroke-linejoin:round;stroke-miterlimit:4;stroke-dasharray:none;stroke-opacity:1;paint-order:markers stroke fill"
       id="path1395"
       sodipodi:type="arc"
       sodipodi:cx="12.543381"
       sodipodi:cy="265.69543"
       sodipodi:rx="11.555141"
       sodipodi:ry="5.4092512"
       sodipodi:start="0"
       sodipodi:end="6.2557836"
       sodipodi:open="true"
       d="m 24.098522,265.69543 a 11.555141,5.4092512 0 0 1 -11.475984,5.40913 11.555141,5.4092512 0 0 1 -11.6332142,-5.33502 11.555141,5.4092512 0 0 1 11.3166012,-5.48221 11.555141,5.4092512 0 0 1 11.788259,5.2599" />
    <path
       id="path4466-3-6-0"
       d="m 4.7271343,296.38404 2.7599822,-5.3374 v -7.67246 l -0.2123052,-0.58377 h 0.2123052 l 0.4670772,0.58377 v 7.67246 l -3.1845947,5.3374 z"
       style="fill:#000000;fill-opacity:1;stroke:#ffffff;stroke-width:0.09066541;stroke-opacity:1"
       inkscape:connector-curvature="0" />
    <path
       id="path4468-2-3-6"
       d="m 3.9416026,296.38404 -2.7812155,-5.3374 v -7.67246 l 0.2335304,-0.58377 H 1.1603871 l -0.44585329,0.58377 v 7.67246 l 3.16337989,5.3374 z"
       style="fill:#000000;fill-opacity:1;stroke:#ffffff;stroke-width:0.09066541;stroke-opacity:1"
       inkscape:connector-curvature="0" />
    <path
       id="path4470-7-2-1"
       d="m 4.620985,296.38404 1.7409027,-5.3374 v -7.67246 l -0.2335305,-0.58377 h 0.573233 l 0.2335348,0.58377 v 7.67246 l -2.2716894,5.3374 z"
       style="fill:#000000;fill-opacity:1;stroke:#ffffff;stroke-width:0.09066541;stroke-opacity:1"
       inkscape:connector-curvature="0" />
    <path
       id="path4472-5-8-0"
       d="m 4.6634356,296.38404 2.2716894,-5.3374 v -7.67246 l -0.2335348,-0.58377 h 0.5732211 l 0.2123052,0.58377 v 7.67246 l -2.7599822,5.3374 z"
       style="fill:#000000;fill-opacity:1;stroke:#ffffff;stroke-width:0.09066541;stroke-opacity:1"
       inkscape:connector-curvature="0" />
    <path
       id="path4474-1-1-0"
       d="m 3.9840661,296.38404 -2.2504562,-5.3374 v -7.67246 l 0.2123117,-0.58377 H 1.3939175 l -0.2335304,0.58377 v 7.67246 l 2.7812155,5.3374 z"
       style="fill:#000000;fill-opacity:1;stroke:#ffffff;stroke-width:0.09066541;stroke-opacity:1"
       inkscape:connector-curvature="0" />
    <path
       id="path4476-6-1-5"
       d="m 4.5572863,296.38404 1.2313814,-5.3374 v -7.67246 l -0.2123073,-0.58377 h 0.5732287 l 0.2122986,0.58377 v 7.67246 l -1.7621356,5.3374 z"
       style="fill:#000000;fill-opacity:1;stroke:#ffffff;stroke-width:0.09066541;stroke-opacity:1"
       inkscape:connector-curvature="0" />
    <path
       id="path4478-8-4-7"
       d="m 4.0477565,296.38404 -1.7409157,-5.3374 v -7.67246 l 0.2123007,-0.58377 H 1.9459216 l -0.2123117,0.58377 v 7.67246 l 2.2504562,5.3374 z"
       style="fill:#000000;fill-opacity:1;stroke:#ffffff;stroke-width:0.09066541;stroke-opacity:1"
       inkscape:connector-curvature="0" />
    <path
       id="path4480-6-36-3"
       d="m 4.4935963,296.38404 0.7430745,-5.3374 v -7.67246 l -0.1698404,-0.58377 h 0.50953 l 0.2335413,0.58377 v 7.67246 l -1.2526154,5.3374 z"
       style="fill:#000000;fill-opacity:1;stroke:#ffffff;stroke-width:0.09066541;stroke-opacity:1"
       inkscape:connector-curvature="0" />
    <path
       id="path4482-0-8-6"
       d="m 4.1114485,296.38404 -1.2526119,-5.3374 v -7.67246 l 0.2335358,-0.58377 H 2.5191415 l -0.2335289,0.58377 v 7.67246 l 1.7621439,5.3374 z"
       style="fill:#000000;fill-opacity:1;stroke:#ffffff;stroke-width:0.09066541;stroke-opacity:1"
       inkscape:connector-curvature="0" />
    <path
       id="path4484-5-9-1"
       d="m 4.4299062,296.38404 0.2335294,-5.3374 v -7.67246 l -0.1061482,-0.58377 h 0.5095462 l 0.1698405,0.58377 v 7.67246 l -0.7430757,5.3374 z"
       style="fill:#000000;fill-opacity:1;stroke:#ffffff;stroke-width:0.09066541;stroke-opacity:1"
       inkscape:connector-curvature="0" />
    <path
       id="path4486-7-5-1"
       d="m 4.2175956,296.38404 -0.7855321,-5.3374 v -7.67246 l 0.1698483,-0.58377 H 3.0923724 l -0.2335358,0.58377 v 7.67246 l 1.2526119,5.3374 z"
       style="fill:#000000;fill-opacity:1;stroke:#ffffff;stroke-width:0.09066541;stroke-opacity:1"
       inkscape:connector-curvature="0" />
    <path
       id="path4488-5-4-8"
       d="m 4.3237569,296.38404 -0.3396908,-5.3374 v -7.67246 l 0.1273802,-0.58377 h 0.4458378 l 0.1061374,0.58377 v 7.67246 l -0.2335283,5.3374 z"
       style="fill:#000000;fill-opacity:1;stroke:#ffffff;stroke-width:0.09066541;stroke-opacity:1"
       inkscape:connector-curvature="0" />
    <path
       id="path4490-1-2-7"
       d="m 4.3237569,296.38404 -0.3396908,-5.3374 v -7.67246 l 0.1273802,-0.58377 H 3.6019104 l -0.1698482,0.58377 v 7.67246 l 0.7855313,5.3374 z"
       style="fill:#000000;fill-opacity:1;stroke:#ffffff;stroke-width:0.09066541;stroke-opacity:1"
       inkscape:connector-curvature="0" />
    <path
       id="path4492-0-8-4"
       d="m 6.1283572,282.79041 -1.8046003,-0.30577 3.1633596,0.30577 z"
       style="fill:#000000;fill-opacity:1;stroke:#ffffff;stroke-width:0.09066541;stroke-opacity:1"
       inkscape:connector-curvature="0" />
    <path
       id="path4494-4-2-6"
       d="m 4.3237569,282.48464 0.4670664,0.30577 h 1.3375339 z"
       style="fill:#000000;fill-opacity:1;stroke:#ffffff;stroke-width:0.09066541;stroke-opacity:1"
       inkscape:connector-curvature="0" />
    <path
       id="path4496-4-2-7"
       d="m 4.3237569,282.48464 -0.7855356,0.30577 h 1.252602 z"
       style="fill:#000000;fill-opacity:1;stroke:#ffffff;stroke-width:0.09066541;stroke-opacity:1"
       inkscape:connector-curvature="0" />
    <path
       id="path4498-5-2-3"
       d="m 3.5382213,282.79041 0.7855356,-0.30577 -1.9107664,0.30577 z"
       style="fill:#000000;fill-opacity:1;stroke:#ffffff;stroke-width:0.09066541;stroke-opacity:1"
       inkscape:connector-curvature="0" />
    <path
       id="path4500-9-4-8"
       d="m 4.3237569,282.48464 -1.9107664,0.30577 H 1.1603871 Z"
       style="fill:#000000;fill-opacity:1;stroke:#ffffff;stroke-width:0.09066541;stroke-opacity:1"
       inkscape:connector-curvature="0" />
    <path
       id="path4502-7-8-1"
       d="m 1.1603871,282.79041 h 6.3267294 l -3.1633596,-0.30577 -3.1633698,0.30577"
       style="fill:#000000;fill-opacity:1;stroke:#ffffff;stroke-width:0.02420002px;stroke-linecap:round;stroke-linejoin:round;stroke-miterlimit:4;stroke-dasharray:none;stroke-opacity:1"
       inkscape:connector-curvature="0" />
    <path
       id="path4508-3-1-7"
       d="m 7.9541937,283.59658 -0.063689,-0.0833 -0.3609246,-0.11117 -0.4033839,-0.0557 -0.4883068,-0.0278 -0.2760017,-0.0278 -0.2972183,-0.0278 H 5.4277506 l -0.3396917,-0.0278 H 3.6443751 l -0.3609221,0.0278 H 2.6465359 l -0.2972235,0.0278 -0.530773,0.0278 -0.4246164,0.0557 -0.3396845,0.0833 -0.21230659,0.0557 -0.063686,0.0833"
       style="fill:#000000;fill-opacity:1;stroke:#ffffff;stroke-width:0.02420002px;stroke-linecap:round;stroke-linejoin:round;stroke-miterlimit:4;stroke-dasharray:none;stroke-opacity:1"
       inkscape:connector-curvature="0" />
    <path
       id="path4466-9-82-0"
       d="m 11.966792,296.38404 2.759983,-5.3374 v -7.67246 l -0.212314,-0.58377 h 0.212314 l 0.467064,0.58377 v 7.67246 l -3.184588,5.3374 z"
       style="fill:#000000;fill-opacity:1;stroke:#ffffff;stroke-width:0.09066541;stroke-opacity:1"
       inkscape:connector-curvature="0" />
    <path
       id="path4468-4-44-3"
       d="m 11.18126,296.38404 -2.7812177,-5.3374 v -7.67246 l 0.2335383,-0.58377 H 8.4000423 l -0.4458486,0.58377 v 7.67246 l 3.1633683,5.3374 z"
       style="fill:#000000;fill-opacity:1;stroke:#ffffff;stroke-width:0.09066541;stroke-opacity:1"
       inkscape:connector-curvature="0" />
    <path
       id="path4470-2-6-3"
       d="m 11.860628,296.38404 1.740917,-5.3374 v -7.67246 l -0.233537,-0.58377 h 0.573228 l 0.233538,0.58377 v 7.67246 l -2.271675,5.3374 z"
       style="fill:#000000;fill-opacity:1;stroke:#ffffff;stroke-width:0.09066541;stroke-opacity:1"
       inkscape:connector-curvature="0" />
    <path
       id="path4472-9-3-2"
       d="m 11.903099,296.38404 2.271675,-5.3374 v -7.67246 l -0.233538,-0.58377 h 0.573225 l 0.212314,0.58377 v 7.67246 l -2.759983,5.3374 z"
       style="fill:#000000;fill-opacity:1;stroke:#ffffff;stroke-width:0.09066541;stroke-opacity:1"
       inkscape:connector-curvature="0" />
    <path
       id="path4474-3-5-1"
       d="m 11.223713,296.38404 -2.2504519,-5.3374 v -7.67246 l 0.2123127,-0.58377 H 8.6335806 l -0.2335383,0.58377 v 7.67246 l 2.7812177,5.3374 z"
       style="fill:#000000;fill-opacity:1;stroke:#ffffff;stroke-width:0.09066541;stroke-opacity:1"
       inkscape:connector-curvature="0" />
    <path
       id="path4476-2-61-3"
       d="m 11.796941,296.38404 1.231375,-5.3374 v -7.67246 l -0.212311,-0.58377 h 0.573233 l 0.212307,0.58377 v 7.67246 l -1.762151,5.3374 z"
       style="fill:#000000;fill-opacity:1;stroke:#ffffff;stroke-width:0.09066541;stroke-opacity:1"
       inkscape:connector-curvature="0" />
    <path
       id="path4478-5-0-1"
       d="m 11.2874,296.38404 -1.7409007,-5.3374 v -7.67246 l 0.2122994,-0.58377 H 9.1855738 l -0.2123127,0.58377 v 7.67246 l 2.2504519,5.3374 z"
       style="fill:#000000;fill-opacity:1;stroke:#ffffff;stroke-width:0.09066541;stroke-opacity:1"
       inkscape:connector-curvature="0" />
    <path
       id="path4480-8-8-6"
       d="m 11.733247,296.38404 0.74307,-5.3374 v -7.67246 l -0.169839,-0.58377 h 0.509527 l 0.23355,0.58377 v 7.67246 l -1.252614,5.3374 z"
       style="fill:#000000;fill-opacity:1;stroke:#ffffff;stroke-width:0.09066541;stroke-opacity:1"
       inkscape:connector-curvature="0" />
    <path
       id="path4482-1-2-7"
       d="m 11.3511,296.38404 -1.252615,-5.3374 v -7.67246 l 0.233541,-0.58377 H 9.7587987 l -0.2335276,0.58377 v 7.67246 l 1.7621289,5.3374 z"
       style="fill:#000000;fill-opacity:1;stroke:#ffffff;stroke-width:0.09066541;stroke-opacity:1"
       inkscape:connector-curvature="0" />
    <path
       id="path4484-3-9-7"
       d="m 11.669559,296.38404 0.23354,-5.3374 v -7.67246 l -0.106149,-0.58377 h 0.509533 l 0.169839,0.58377 v 7.67246 l -0.743066,5.3374 z"
       style="fill:#000000;fill-opacity:1;stroke:#ffffff;stroke-width:0.09066541;stroke-opacity:1"
       inkscape:connector-curvature="0" />
    <path
       id="path4486-4-6-5"
       d="m 11.457249,296.38404 -0.785531,-5.3374 v -7.67246 l 0.169845,-0.58377 h -0.509537 l -0.233541,0.58377 v 7.67246 l 1.252615,5.3374 z"
       style="fill:#000000;fill-opacity:1;stroke:#ffffff;stroke-width:0.09066541;stroke-opacity:1"
       inkscape:connector-curvature="0" />
    <path
       id="path4488-54-39-3"
       d="m 11.563398,296.38404 -0.339685,-5.3374 v -7.67246 l 0.12738,-0.58377 h 0.445842 l 0.10617,0.58377 v 7.67246 l -0.233538,5.3374 z"
       style="fill:#000000;fill-opacity:1;stroke:#ffffff;stroke-width:0.09066541;stroke-opacity:1"
       inkscape:connector-curvature="0" />
    <path
       id="path4490-6-4-7"
       d="m 11.563398,296.38404 -0.339685,-5.3374 v -7.67246 l 0.12738,-0.58377 h -0.509536 l -0.169845,0.58377 v 7.67246 l 0.78553,5.3374 z"
       style="fill:#000000;fill-opacity:1;stroke:#ffffff;stroke-width:0.09066541;stroke-opacity:1"
       inkscape:connector-curvature="0" />
    <path
       id="path4492-7-3-2"
       d="m 13.368008,282.79041 -1.80461,-0.30577 3.163377,0.30577 z"
       style="fill:#000000;fill-opacity:1;stroke:#ffffff;stroke-width:0.09066541;stroke-opacity:1"
       inkscape:connector-curvature="0" />
    <path
       id="path4494-1-0-1"
       d="m 11.563398,282.48464 0.467084,0.30577 h 1.337526 z"
       style="fill:#000000;fill-opacity:1;stroke:#ffffff;stroke-width:0.09066541;stroke-opacity:1"
       inkscape:connector-curvature="0" />
    <path
       id="path4496-3-8-2"
       d="m 11.563398,282.48464 -0.785525,0.30577 h 1.252609 z"
       style="fill:#000000;fill-opacity:1;stroke:#ffffff;stroke-width:0.09066541;stroke-opacity:1"
       inkscape:connector-curvature="0" />
    <path
       id="path4498-7-1-1"
       d="m 10.777873,282.79041 0.785525,-0.30577 -1.9107513,0.30577 z"
       style="fill:#000000;fill-opacity:1;stroke:#ffffff;stroke-width:0.09066541;stroke-opacity:1"
       inkscape:connector-curvature="0" />
    <path
       id="path4500-4-3-5"
       d="m 11.563398,282.48464 -1.9107513,0.30577 H 8.4000423 Z"
       style="fill:#000000;fill-opacity:1;stroke:#ffffff;stroke-width:0.09066541;stroke-opacity:1"
       inkscape:connector-curvature="0" />
    <path
       id="path4502-75-8-3"
       d="m 8.4000423,282.79041 h 6.3267327 l -3.163377,-0.30577 -3.1633557,0.30577"
       style="fill:#000000;fill-opacity:1;stroke:#ffffff;stroke-width:0.02420002px;stroke-linecap:round;stroke-linejoin:round;stroke-miterlimit:4;stroke-dasharray:none;stroke-opacity:1"
       inkscape:connector-curvature="0" />
    <path
       id="path4508-8-0-6"
       d="m 15.193839,283.59658 -0.06369,-0.0833 -0.360926,-0.11117 -0.403382,-0.0557 -0.4883,-0.0278 -0.276001,-0.0278 -0.297227,-0.0278 h -0.636914 l -0.339696,-0.0278 h -1.443686 l -0.360922,0.0278 H 9.8861767 l -0.2972158,0.0278 -0.5307735,0.0278 -0.4246041,0.0557 -0.3396968,0.0833 -0.2123074,0.0557 -0.063689,0.0833"
       style="fill:#000000;fill-opacity:1;stroke:#ffffff;stroke-width:0.02420002px;stroke-linecap:round;stroke-linejoin:round;stroke-miterlimit:4;stroke-dasharray:none;stroke-opacity:1"
       inkscape:connector-curvature="0" />
    <path
       id="path4466-7-3-3"
       d="m 19.206437,296.38404 2.759978,-5.3374 v -7.67246 l -0.212316,-0.58377 h 0.212316 l 0.467069,0.58377 v 7.67246 l -3.184588,5.3374 z"
       style="fill:#000000;fill-opacity:1;stroke:#ffffff;stroke-width:0.09066541;stroke-opacity:1"
       inkscape:connector-curvature="0" />
    <path
       id="path4468-9-21-9"
       d="m 18.420908,296.38404 -2.781222,-5.3374 v -7.67246 l 0.233541,-0.58377 h -0.233541 l -0.445847,0.58377 v 7.67246 l 3.163374,5.3374 z"
       style="fill:#000000;fill-opacity:1;stroke:#ffffff;stroke-width:0.09066541;stroke-opacity:1"
       inkscape:connector-curvature="0" />
    <path
       id="path4470-6-5-7"
       d="m 19.10028,296.38404 1.740904,-5.3374 v -7.67246 l -0.233537,-0.58377 h 0.573232 l 0.233531,0.58377 v 7.67246 l -2.271666,5.3374 z"
       style="fill:#000000;fill-opacity:1;stroke:#ffffff;stroke-width:0.09066541;stroke-opacity:1"
       inkscape:connector-curvature="0" />
    <path
       id="path4472-51-79-3"
       d="m 19.142744,296.38404 2.271666,-5.3374 v -7.67246 l -0.233531,-0.58377 h 0.57322 l 0.212316,0.58377 v 7.67246 l -2.759978,5.3374 z"
       style="fill:#000000;fill-opacity:1;stroke:#ffffff;stroke-width:0.09066541;stroke-opacity:1"
       inkscape:connector-curvature="0" />
    <path
       id="path4474-16-1-0"
       d="m 18.463366,296.38404 -2.250453,-5.3374 v -7.67246 l 0.212305,-0.58377 h -0.551991 l -0.233541,0.58377 v 7.67246 l 2.781222,5.3374 z"
       style="fill:#000000;fill-opacity:1;stroke:#ffffff;stroke-width:0.09066541;stroke-opacity:1"
       inkscape:connector-curvature="0" />
    <path
       id="path4476-5-7-0"
       d="m 19.036589,296.38404 1.231372,-5.3374 v -7.67246 l -0.212311,-0.58377 h 0.573226 l 0.212308,0.58377 v 7.67246 l -1.762132,5.3374 z"
       style="fill:#000000;fill-opacity:1;stroke:#ffffff;stroke-width:0.09066541;stroke-opacity:1"
       inkscape:connector-curvature="0" />
    <path
       id="path4478-9-57-0"
       d="m 18.527054,296.38404 -1.740908,-5.3374 v -7.67246 l 0.212303,-0.58377 h -0.573231 l -0.212305,0.58377 v 7.67246 l 2.250453,5.3374 z"
       style="fill:#000000;fill-opacity:1;stroke:#ffffff;stroke-width:0.09066541;stroke-opacity:1"
       inkscape:connector-curvature="0" />
    <path
       id="path4480-0-6-6"
       d="m 18.972896,296.38404 0.743069,-5.3374 v -7.67246 l -0.169848,-0.58377 h 0.509533 l 0.233533,0.58377 v 7.67246 l -1.252594,5.3374 z"
       style="fill:#000000;fill-opacity:1;stroke:#ffffff;stroke-width:0.09066541;stroke-opacity:1"
       inkscape:connector-curvature="0" />
    <path
       id="path4482-3-4-6"
       d="m 18.590747,296.38404 -1.252612,-5.3374 v -7.67246 l 0.233543,-0.58377 h -0.573229 l -0.233534,0.58377 v 7.67246 l 1.762139,5.3374 z"
       style="fill:#000000;fill-opacity:1;stroke:#ffffff;stroke-width:0.09066541;stroke-opacity:1"
       inkscape:connector-curvature="0" />
    <path
       id="path4484-7-47-2"
       d="m 18.909207,296.38404 0.233537,-5.3374 v -7.67246 l -0.106137,-0.58377 h 0.509526 l 0.169848,0.58377 v 7.67246 l -0.743066,5.3374 z"
       style="fill:#000000;fill-opacity:1;stroke:#ffffff;stroke-width:0.09066541;stroke-opacity:1"
       inkscape:connector-curvature="0" />
    <path
       id="path4486-6-5-6"
       d="m 18.696892,296.38404 -0.785531,-5.3374 v -7.67246 l 0.169851,-0.58377 h -0.509534 l -0.233543,0.58377 v 7.67246 l 1.252612,5.3374 z"
       style="fill:#000000;fill-opacity:1;stroke:#ffffff;stroke-width:0.09066541;stroke-opacity:1"
       inkscape:connector-curvature="0" />
    <path
       id="path4488-7-6-2"
       d="m 18.803057,296.38404 -0.339691,-5.3374 v -7.67246 l 0.127381,-0.58377 h 0.445842 l 0.106148,0.58377 v 7.67246 l -0.233537,5.3374 z"
       style="fill:#000000;fill-opacity:1;stroke:#ffffff;stroke-width:0.09066541;stroke-opacity:1"
       inkscape:connector-curvature="0" />
    <path
       id="path4490-7-8-2"
       d="m 18.803057,296.38404 -0.339691,-5.3374 v -7.67246 l 0.127381,-0.58377 h -0.509535 l -0.169851,0.58377 v 7.67246 l 0.785531,5.3374 z"
       style="fill:#000000;fill-opacity:1;stroke:#ffffff;stroke-width:0.09066541;stroke-opacity:1"
       inkscape:connector-curvature="0" />
    <path
       id="path4492-4-2-9"
       d="m 20.607647,282.79041 -1.80459,-0.30577 3.163358,0.30577 z"
       style="fill:#000000;fill-opacity:1;stroke:#ffffff;stroke-width:0.09066541;stroke-opacity:1"
       inkscape:connector-curvature="0" />
    <path
       id="path4494-40-8-5"
       d="m 18.803057,282.48464 0.467071,0.30577 h 1.337519 z"
       style="fill:#000000;fill-opacity:1;stroke:#ffffff;stroke-width:0.09066541;stroke-opacity:1"
       inkscape:connector-curvature="0" />
    <path
       id="path4496-0-1-9"
       d="m 18.803057,282.48464 -0.785533,0.30577 h 1.252604 z"
       style="fill:#000000;fill-opacity:1;stroke:#ffffff;stroke-width:0.09066541;stroke-opacity:1"
       inkscape:connector-curvature="0" />
    <path
       id="path4498-2-6-4"
       d="m 18.017524,282.79041 0.785533,-0.30577 -1.910765,0.30577 z"
       style="fill:#000000;fill-opacity:1;stroke:#ffffff;stroke-width:0.09066541;stroke-opacity:1"
       inkscape:connector-curvature="0" />
    <path
       id="path4500-1-1-2"
       d="m 18.803057,282.48464 -1.910765,0.30577 h -1.252606 z"
       style="fill:#000000;fill-opacity:1;stroke:#ffffff;stroke-width:0.09066541;stroke-opacity:1"
       inkscape:connector-curvature="0" />
    <path
       id="path4502-9-9-6"
       d="m 15.639686,282.79041 h 6.326729 l -3.163358,-0.30577 -3.163371,0.30577"
       style="fill:#000000;fill-opacity:1;stroke:#ffffff;stroke-width:0.02420002px;stroke-linecap:round;stroke-linejoin:round;stroke-miterlimit:4;stroke-dasharray:none;stroke-opacity:1"
       inkscape:connector-curvature="0" />
    <path
       id="path4508-7-4-5"
       d="m 22.433484,283.59658 -0.06369,-0.0833 -0.360918,-0.11117 -0.403389,-0.0557 -0.488303,-0.0278 -0.276001,-0.0278 -0.297224,-0.0278 h -0.636921 l -0.339688,-0.0278 h -1.443682 l -0.360916,0.0278 h -0.636923 l -0.297225,0.0278 -0.530767,0.0278 -0.42461,0.0557 -0.339689,0.0833 -0.212309,0.0557 -0.06369,0.0833"
       style="fill:#000000;fill-opacity:1;stroke:#ffffff;stroke-width:0.02420002px;stroke-linecap:round;stroke-linejoin:round;stroke-miterlimit:4;stroke-dasharray:none;stroke-opacity:1"
       inkscape:connector-curvature="0" />
    <flowRoot
       xml:space="preserve"
       id="flowRoot8074-0"
       style="font-style:normal;font-variant:normal;font-weight:bold;font-stretch:normal;font-size:40.00019455px;line-height:1.25;font-family:Consolas;-inkscape-font-specification:'Consolas, Bold';font-variant-ligatures:normal;font-variant-caps:normal;font-variant-numeric:normal;font-feature-settings:normal;text-align:start;letter-spacing:0px;word-spacing:0px;writing-mode:lr-tb;text-anchor:start;fill:#000000;fill-opacity:1;stroke:#ffffff;stroke-width:1.56477439;stroke-miterlimit:4;stroke-dasharray:none;stroke-opacity:1;"
       transform="matrix(0.38344185,0,0,0.43439833,-37.505858,59.449683)"><flowRegion
         id="flowRegion8076-5"
         style="font-style:normal;font-variant:normal;font-weight:bold;font-stretch:normal;font-size:40.00019455px;font-family:Consolas;-inkscape-font-specification:'Consolas, Bold';font-variant-ligatures:normal;font-variant-caps:normal;font-variant-numeric:normal;font-feature-settings:normal;text-align:start;writing-mode:lr-tb;text-anchor:start;stroke:#ffffff;stroke-width:1.56477439;stroke-miterlimit:4;stroke-dasharray:none;stroke-opacity:1;"><rect
           id="rect8078-0"
           width="585.88849"
           height="148.49243"
           x="160.61426"
           y="508.08633"
           style="font-style:normal;font-variant:normal;font-weight:bold;font-stretch:normal;font-size:40.00019455px;font-family:Consolas;-inkscape-font-specification:'Consolas, Bold';font-variant-ligatures:normal;font-variant-caps:normal;font-variant-numeric:normal;font-feature-settings:normal;text-align:start;writing-mode:lr-tb;text-anchor:start;stroke:#ffffff;stroke-width:1.56477439;stroke-miterlimit:4;stroke-dasharray:none;stroke-opacity:1;" /></flowRegion><flowPara
         id="flowPara8080-4"
         style="font-style:normal;font-variant:normal;font-weight:bold;font-stretch:normal;font-size:40.00019455px;font-family:Consolas;-inkscape-font-specification:'Consolas, Bold';font-variant-ligatures:normal;font-variant-caps:normal;font-variant-numeric:normal;font-feature-settings:normal;text-align:start;writing-mode:lr-tb;text-anchor:start;fill:#00ccff;stroke:#ffffff;stroke-width:1.56477439;stroke-miterlimit:4;stroke-dasharray:none;stroke-opacity:1;">Dosi</flowPara></flowRoot>    <text
       xml:space="preserve"
       style="font-style:normal;font-variant:normal;font-weight:bold;font-stretch:normal;font-size:16.70144081px;line-height:1.25;font-family:Consolas;-inkscape-font-specification:'Consolas, Bold';font-variant-ligatures:normal;font-variant-caps:normal;font-variant-numeric:normal;font-feature-settings:normal;text-align:start;letter-spacing:0px;word-spacing:0px;writing-mode:lr-tb;text-anchor:start;fill:#000000;fill-opacity:1;stroke:#ffffff;stroke-width:0.63521028;stroke-miterlimit:4;stroke-dasharray:none;stroke-opacity:1;"
       x="60.573311"
       y="278.86957"
       id="text8092-4"
       transform="scale(0.94456918,1.0586837)"><tspan
         sodipodi:role="line"
         id="tspan8090-7"
         x="60.573311"
         y="278.86957"
         style="fill:#0044aa;stroke:#ffffff;stroke-width:0.63521028;stroke-miterlimit:4;stroke-dasharray:none;stroke-opacity:1;">Plant</tspan></text>
    <path
       style="opacity:1;fill:none;fill-opacity:1;fill-rule:nonzero;stroke:#0a1efb;stroke-width:0.69804353;stroke-linecap:square;stroke-linejoin:round;stroke-miterlimit:4;stroke-dasharray:none;stroke-opacity:1;paint-order:markers stroke fill"
       id="path1395-8"
       sodipodi:type="arc"
       sodipodi:cx="-15.381454"
       sodipodi:cy="273.82816"
       sodipodi:rx="14.765014"
       sodipodi:ry="6.911871"
       sodipodi:start="0"
       sodipodi:end="6.2557836"
       sodipodi:open="true"
       d="m -0.61644077,273.82816 a 14.765014,6.911871 0 0 1 -14.66386823,6.9117 14.765014,6.911871 0 0 1 -14.864773,-6.81701 14.765014,6.911871 0 0 1 14.460209,-7.00511 14.765014,6.911871 0 0 1 15.06288939,6.72104" />
    <path
       id="path4466-3-6-0-4"
       d="m -4.8244996,326.05617 2.7803102,-4.19703 v -6.03326 l -0.2138678,-0.45905 h 0.2138678 l 0.4705171,0.45905 v 6.03326 l -3.20805,4.19703 z"
       style="fill:#80ff80;fill-opacity:1;stroke:none;stroke-width:0.0806944;stroke-opacity:1"
       inkscape:connector-curvature="0" />
    <path
       id="path4468-2-3-6-8"
       d="m -5.615816,326.05617 -2.8016984,-4.19703 v -6.03326 l 0.235251,-0.45905 h -0.235251 l -0.4491371,0.45905 v 6.03326 l 3.1866768,4.19703 z"
       style="fill:#80ff80;fill-opacity:1;stroke:none;stroke-width:0.0806944;stroke-opacity:1"
       inkscape:connector-curvature="0" />
    <path
       id="path4470-7-2-1-2"
       d="m -4.9314302,326.05617 1.7537239,-4.19703 v -6.03326 l -0.2352481,-0.45905 h 0.5774533 l 0.2352538,0.45905 v 6.03326 l -2.2884177,4.19703 z"
       style="fill:#80ff80;fill-opacity:1;stroke:none;stroke-width:0.0806944;stroke-opacity:1"
       inkscape:connector-curvature="0" />
    <path
       id="path4472-5-8-0-2"
       d="m -4.888665,326.05617 2.2884177,-4.19703 v -6.03326 l -0.2352538,-0.45905 h 0.5774439 l 0.2138678,0.45905 v 6.03326 l -2.7803102,4.19703 z"
       style="fill:#80ff80;fill-opacity:1;stroke:none;stroke-width:0.0806944;stroke-opacity:1"
       inkscape:connector-curvature="0" />
    <path
       id="path4474-1-1-0-5"
       d="m -5.5730394,326.05617 -2.267031,-4.19703 v -6.03326 l 0.2138763,-0.45905 h -0.5560693 l -0.235251,0.45905 v 6.03326 l 2.8016984,4.19703 z"
       style="fill:#80ff80;fill-opacity:1;stroke:none;stroke-width:0.0806944;stroke-opacity:1"
       inkscape:connector-curvature="0" />
    <path
       id="path4476-6-1-5-8"
       d="m -4.9955984,326.05617 1.2404511,-4.19703 v -6.03326 l -0.2138707,-0.45905 h 0.5774514 l 0.2138603,0.45905 v 6.03326 l -1.7751117,4.19703 z"
       style="fill:#80ff80;fill-opacity:1;stroke:none;stroke-width:0.0806944;stroke-opacity:1"
       inkscape:connector-curvature="0" />
    <path
       id="path4478-8-4-7-6"
       d="m -5.5088816,326.05617 -1.7537355,-4.19703 v -6.03326 l 0.2138641,-0.45905 h -0.5774411 l -0.2138763,0.45905 v 6.03326 l 2.267031,4.19703 z"
       style="fill:#80ff80;fill-opacity:1;stroke:none;stroke-width:0.0806944;stroke-opacity:1"
       inkscape:connector-curvature="0" />
    <path
       id="path4480-6-36-3-7"
       d="m -5.0597562,326.05617 0.7485462,-4.19703 v -6.03326 l -0.1710903,-0.45905 h 0.5132823 l 0.2352613,0.45905 v 6.03326 l -1.2618417,4.19703 z"
       style="fill:#80ff80;fill-opacity:1;stroke:none;stroke-width:0.0806944;stroke-opacity:1"
       inkscape:connector-curvature="0" />
    <path
       id="path4482-0-8-6-9"
       d="m -5.44472,326.05617 -1.2618344,-4.19703 v -6.03326 l 0.2352547,-0.45905 H -7.048753 l -0.2352481,0.45905 v 6.03326 l 1.7751195,4.19703 z"
       style="fill:#80ff80;fill-opacity:1;stroke:none;stroke-width:0.0806944;stroke-opacity:1"
       inkscape:connector-curvature="0" />
    <path
       id="path4484-5-9-1-7"
       d="m -5.1239131,326.05617 0.2352481,-4.19703 v -6.03326 l -0.1069372,-0.45905 h 0.5132971 l 0.1710903,0.45905 v 6.03326 l -0.7485452,4.19703 z"
       style="fill:#80ff80;fill-opacity:1;stroke:none;stroke-width:0.0806944;stroke-opacity:1"
       inkscape:connector-curvature="0" />
    <path
       id="path4486-7-5-1-1"
       d="m -5.3377903,326.05617 -0.7913174,-4.19703 v -6.03326 l 0.1710988,-0.45905 h -0.5132908 l -0.2352547,0.45905 v 6.03326 l 1.2618344,4.19703 z"
       style="fill:#80ff80;fill-opacity:1;stroke:none;stroke-width:0.0806944;stroke-opacity:1"
       inkscape:connector-curvature="0" />
    <path
       id="path4488-5-4-8-3"
       d="m -5.2308464,326.05617 -0.342193,-4.19703 v -6.03326 l 0.1283194,-0.45905 h 0.4491216 l 0.1069372,0.45905 v 6.03326 l -0.2352481,4.19703 z"
       style="fill:#80ff80;fill-opacity:1;stroke:none;stroke-width:0.0806944;stroke-opacity:1"
       inkscape:connector-curvature="0" />
    <path
       id="path4490-1-2-7-5"
       d="m -5.2308464,326.05617 -0.342193,-4.19703 v -6.03326 l 0.1283194,-0.45905 h -0.5132889 l -0.1710988,0.45905 v 6.03326 l 0.7913174,4.19703 z"
       style="fill:#80ff80;fill-opacity:1;stroke:none;stroke-width:0.0806944;stroke-opacity:1"
       inkscape:connector-curvature="0" />
    <path
       id="path4492-0-8-4-7"
       d="m -3.4129544,315.36683 -1.817892,-0.24046 3.186657,0.24046 z"
       style="fill:#80ff80;fill-opacity:1;stroke:none;stroke-width:0.0806944;stroke-opacity:1"
       inkscape:connector-curvature="0" />
    <path
       id="path4494-4-2-6-2"
       d="m -5.2308464,315.12637 0.4705062,0.24046 h 1.3473858 z"
       style="fill:#80ff80;fill-opacity:1;stroke:none;stroke-width:0.0806944;stroke-opacity:1"
       inkscape:connector-curvature="0" />
    <path
       id="path4496-4-2-7-1"
       d="m -5.2308464,315.12637 -0.7913212,0.24046 h 1.2618274 z"
       style="fill:#80ff80;fill-opacity:1;stroke:none;stroke-width:0.0806944;stroke-opacity:1"
       inkscape:connector-curvature="0" />
    <path
       id="path4498-5-2-3-4"
       d="m -6.0221676,315.36683 0.7913212,-0.24046 -1.9248391,0.24046 z"
       style="fill:#80ff80;fill-opacity:1;stroke:none;stroke-width:0.0806944;stroke-opacity:1"
       inkscape:connector-curvature="0" />
    <path
       id="path4500-9-4-8-6"
       d="m -5.2308464,315.12637 -1.9248391,0.24046 h -1.2618289 z"
       style="fill:#80ff80;fill-opacity:1;stroke:none;stroke-width:0.0806944;stroke-opacity:1"
       inkscape:connector-curvature="0" />
    <path
       id="path4502-7-8-1-3"
       d="m -8.4175144,315.36683 h 6.373325 l -3.186657,-0.24046 -3.186668,0.24046"
       style="fill:#80ff80;fill-opacity:1;stroke:none;stroke-width:0.02153861px;stroke-linecap:round;stroke-linejoin:round;stroke-miterlimit:4;stroke-dasharray:none;stroke-opacity:1"
       inkscape:connector-curvature="0" />
    <path
       id="path4508-3-1-7-5"
       d="m -1.5736723,316.00075 -0.064156,-0.0654 -0.3635836,-0.0875 -0.4063574,-0.0437 -0.491901,-0.0218 -0.2780342,-0.0218 -0.2994069,-0.0221 h -0.6416157 l -0.342193,-0.0218 H -5.915237 l -0.3635808,0.0218 h -0.6416083 l -0.2994125,0.0221 -0.5346824,0.0218 -0.4277433,0.0437 -0.3421864,0.0654 -0.213871,0.0437 -0.064156,0.0655"
       style="fill:#80ff80;fill-opacity:1;stroke:none;stroke-width:0.02153861px;stroke-linecap:round;stroke-linejoin:round;stroke-miterlimit:4;stroke-dasharray:none;stroke-opacity:1"
       inkscape:connector-curvature="0" />
    <path
       id="path4466-9-82-0-1"
       d="m 2.468478,326.05617 2.78031,-4.19703 v -6.03326 l -0.213877,-0.45905 h 0.213877 l 0.470506,0.45905 v 6.03326 l -3.208045,4.19703 z"
       style="fill:#aaffaa;fill-opacity:1;stroke:none;stroke-width:0.0806944;stroke-opacity:1"
       inkscape:connector-curvature="0" />
    <path
       id="path4468-4-44-3-0"
       d="m 1.677162,326.05617 -2.8017041,-4.19703 v -6.03326 l 0.23526134,-0.45905 H -1.1245421 l -0.4491302,0.45905 v 6.03326 l 3.1866663,4.19703 z"
       style="fill:#80ff80;fill-opacity:1;stroke:none;stroke-width:0.0806944;stroke-opacity:1"
       inkscape:connector-curvature="0" />
    <path
       id="path4470-2-6-3-6"
       d="m 2.361535,326.05617 1.753736,-4.19703 v -6.03326 l -0.235258,-0.45905 h 0.577451 l 0.235257,0.45905 v 6.03326 l -2.288407,4.19703 z"
       style="fill:#aaffaa;fill-opacity:1;stroke:none;stroke-width:0.0806944;stroke-opacity:1"
       inkscape:connector-curvature="0" />
    <path
       id="path4472-9-3-2-9"
       d="m 2.404314,326.05617 2.288407,-4.19703 v -6.03326 l -0.235257,-0.45905 h 0.577447 l 0.213877,0.45905 v 6.03326 l -2.78031,4.19703 z"
       style="fill:#aaffaa;fill-opacity:1;stroke:none;stroke-width:0.0806944;stroke-opacity:1"
       inkscape:connector-curvature="0" />
    <path
       id="path4474-3-5-1-6"
       d="m 1.719926,326.05617 -2.26702616,-4.19703 v -6.03326 l 0.2138764,-0.45905 h -0.556057 l -0.23526134,0.45905 v 6.03326 l 2.8017041,4.19703 z"
       style="fill:#aaffaa;fill-opacity:1;stroke:none;stroke-width:0.0806944;stroke-opacity:1"
       inkscape:connector-curvature="0" />
    <path
       id="path4476-2-61-3-4"
       d="m 2.297375,326.05617 1.240446,-4.19703 v -6.03326 L 3.323944,315.36683 H 3.9014 l 0.213871,0.45905 v 6.03326 l -1.77513,4.19703 z"
       style="fill:#aaffaa;fill-opacity:1;stroke:none;stroke-width:0.0806944;stroke-opacity:1"
       inkscape:connector-curvature="0" />
    <path
       id="path4478-5-0-1-0"
       d="m 1.784085,326.05617 -1.75372416,-4.19703 v -6.03326 l 0.2138632,-0.45905 h -0.5774478 l -0.2138764,0.45905 v 6.03326 l 2.26702616,4.19703 z"
       style="fill:#aaffaa;fill-opacity:1;stroke:none;stroke-width:0.0806944;stroke-opacity:1"
       inkscape:connector-curvature="0" />
    <path
       id="path4480-8-8-6-6"
       d="m 2.233215,326.05617 0.748539,-4.19703 v -6.03326 l -0.171088,-0.45905 h 0.513278 l 0.235271,0.45905 v 6.03326 l -1.26184,4.19703 z"
       style="fill:#aaffaa;fill-opacity:1;stroke:none;stroke-width:0.0806944;stroke-opacity:1"
       inkscape:connector-curvature="0" />
    <path
       id="path4482-1-2-7-7"
       d="m 1.848251,326.05617 -1.26184096,-4.19703 v -6.03326 l 0.235262,-0.45905 h -0.577448 l -0.2352482,0.45905 v 6.03326 l 1.77510916,4.19703 z"
       style="fill:#aaffaa;fill-opacity:1;stroke:none;stroke-width:0.0806944;stroke-opacity:1"
       inkscape:connector-curvature="0" />
    <path
       id="path4484-3-9-7-4"
       d="m 2.169057,326.05617 0.235257,-4.19703 v -6.03326 l -0.106937,-0.45905 h 0.513289 l 0.171091,0.45905 v 6.03326 l -0.748541,4.19703 z"
       style="fill:#aaffaa;fill-opacity:1;stroke:none;stroke-width:0.0806944;stroke-opacity:1"
       inkscape:connector-curvature="0" />
    <path
       id="path4486-4-6-5-0"
       d="m 1.955181,326.05617 -0.791315,-4.19703 v -6.03326 l 0.171096,-0.45905 H 0.82167204 l -0.235262,0.45905 v 6.03326 l 1.26184096,4.19703 z"
       style="fill:#aaffaa;fill-opacity:1;stroke:none;stroke-width:0.0806944;stroke-opacity:1"
       inkscape:connector-curvature="0" />
    <path
       id="path4488-54-39-3-9"
       d="m 2.062112,326.05617 -0.342186,-4.19703 v -6.03326 l 0.128326,-0.45905 h 0.449125 l 0.106937,0.45905 v 6.03326 l -0.235258,4.19703 z"
       style="fill:#aaffaa;fill-opacity:1;stroke:none;stroke-width:0.0806944;stroke-opacity:1"
       inkscape:connector-curvature="0" />
    <path
       id="path4490-6-4-7-9"
       d="m 2.062112,326.05617 -0.342186,-4.19703 v -6.03326 l 0.128326,-0.45905 h -0.51329 l -0.171096,0.45905 v 6.03326 l 0.791315,4.19703 z"
       style="fill:#aaffaa;fill-opacity:1;stroke:none;stroke-width:0.0806944;stroke-opacity:1"
       inkscape:connector-curvature="0" />
    <path
       id="path4492-7-3-2-6"
       d="m 3.880013,315.36683 -1.817901,-0.24046 3.186676,0.24046 z"
       style="fill:#aaffaa;fill-opacity:1;stroke:none;stroke-width:0.0806944;stroke-opacity:1"
       inkscape:connector-curvature="0" />
    <path
       id="path4494-1-0-1-9"
       d="m 2.062112,315.12637 0.470524,0.24046 h 1.347377 z"
       style="fill:#aaffaa;fill-opacity:1;stroke:none;stroke-width:0.0806944;stroke-opacity:1"
       inkscape:connector-curvature="0" />
    <path
       id="path4496-3-8-2-3"
       d="m 2.062112,315.12637 -0.791308,0.24046 h 1.261832 z"
       style="fill:#aaffaa;fill-opacity:1;stroke:none;stroke-width:0.0806944;stroke-opacity:1"
       inkscape:connector-curvature="0" />
    <path
       id="path4498-7-1-1-6"
       d="m 1.270804,315.36683 0.791308,-0.24046 -1.92482156,0.24046 z"
       style="fill:#aaffaa;fill-opacity:1;stroke:none;stroke-width:0.0806944;stroke-opacity:1"
       inkscape:connector-curvature="0" />
    <path
       id="path4500-4-3-5-1"
       d="m 2.062112,315.12637 -1.92482156,0.24046 H -1.1245421 Z"
       style="fill:#aaffaa;fill-opacity:1;stroke:none;stroke-width:0.0806944;stroke-opacity:1"
       inkscape:connector-curvature="0" />
    <path
       id="path4502-75-8-3-0"
       d="M -1.1245421,315.36683 H 5.248788 l -3.186676,-0.24046 -3.1866541,0.24046"
       style="fill:#aaffaa;fill-opacity:1;stroke:none;stroke-width:0.02153861px;stroke-linecap:round;stroke-linejoin:round;stroke-miterlimit:4;stroke-dasharray:none;stroke-opacity:1"
       inkscape:connector-curvature="0" />
    <path
       id="path4466-7-3-3-8"
       d="m 16.519746,331.91466 2.780299,-4.19703 v -6.03326 l -0.213869,-0.45905 h 0.213869 l 0.470514,0.45905 v 6.03326 l -3.20804,4.19703 z"
       style="fill:#d5ffd5;fill-opacity:1;stroke:none;stroke-width:0.0806944;stroke-opacity:1"
       inkscape:connector-curvature="0" />
    <path
       id="path4468-9-21-9-8"
       d="m 8.970125,326.05617 -2.8017,-4.19703 v -6.03326 l 0.23526,-0.45905 h -0.23526 l -0.449131,0.45905 v 6.03326 l 3.186668,4.19703 z"
       style="fill:#d5ffd5;fill-opacity:1;stroke:none;stroke-width:0.0806944;stroke-opacity:1"
       inkscape:connector-curvature="0" />
    <path
       id="path4470-6-5-7-3"
       d="m 9.654503,326.05617 1.753722,-4.19703 v -6.03326 l -0.235254,-0.45905 h 0.577453 l 0.235254,0.45905 v 6.03326 l -2.288399,4.19703 z"
       style="fill:#d5ffd5;fill-opacity:1;stroke:none;stroke-width:0.0806944;stroke-opacity:1"
       inkscape:connector-curvature="0" />
    <path
       id="path4472-51-79-3-9"
       d="m 9.697279,326.05617 2.288399,-4.19703 v -6.03326 l -0.235254,-0.45905 h 0.577447 l 0.213869,0.45905 v 6.03326 l -2.780299,4.19703 z"
       style="fill:#d5ffd5;fill-opacity:1;stroke:none;stroke-width:0.0806944;stroke-opacity:1"
       inkscape:connector-curvature="0" />
    <path
       id="path4474-16-1-0-8"
       d="m 9.012899,326.05617 -2.267028,-4.19703 v -6.03326 l 0.21387,-0.45905 H 6.403685 l -0.23526,0.45905 v 6.03326 l 2.8017,4.19703 z"
       style="fill:#d5ffd5;fill-opacity:1;stroke:none;stroke-width:0.0806944;stroke-opacity:1"
       inkscape:connector-curvature="0" />
    <path
       id="path4476-5-7-0-0"
       d="m 9.590343,326.05617 1.240443,-4.19703 v -6.03326 l -0.213877,-0.45905 h 0.577444 l 0.213872,0.45905 v 6.03326 l -1.775108,4.19703 z"
       style="fill:#d5ffd5;fill-opacity:1;stroke:none;stroke-width:0.0806944;stroke-opacity:1"
       inkscape:connector-curvature="0" />
    <path
       id="path4478-9-57-0-5"
       d="m 9.077056,326.05617 -1.753728,-4.19703 v -6.03326 l 0.213866,-0.45905 H 6.959741 l -0.21387,0.45905 v 6.03326 l 2.267028,4.19703 z"
       style="fill:#d5ffd5;fill-opacity:1;stroke:none;stroke-width:0.0806944;stroke-opacity:1"
       inkscape:connector-curvature="0" />
    <path
       id="path4480-0-6-6-7"
       d="m 9.526179,326.05617 0.748542,-4.19703 v -6.03326 l -0.171098,-0.45905 h 0.513286 l 0.235252,0.45905 v 6.03326 l -1.261818,4.19703 z"
       style="fill:#d5ffd5;fill-opacity:1;stroke:none;stroke-width:0.0806944;stroke-opacity:1"
       inkscape:connector-curvature="0" />
    <path
       id="path4482-3-4-6-5"
       d="m 9.141216,326.05617 -1.261834,-4.19703 v -6.03326 l 0.235259,-0.45905 H 7.537194 l -0.235255,0.45905 v 6.03326 l 1.775117,4.19703 z"
       style="fill:#d5ffd5;fill-opacity:1;stroke:none;stroke-width:0.0806944;stroke-opacity:1"
       inkscape:connector-curvature="0" />
    <path
       id="path4484-7-47-2-7"
       d="m 9.462021,326.05617 0.235258,-4.19703 v -6.03326 l -0.106936,-0.45905 h 0.51328 l 0.171098,0.45905 v 6.03326 l -0.748542,4.19703 z"
       style="fill:#d5ffd5;fill-opacity:1;stroke:none;stroke-width:0.0806944;stroke-opacity:1"
       inkscape:connector-curvature="0" />
    <path
       id="path4486-6-5-6-3"
       d="m 9.248145,326.05617 -0.791317,-4.19703 v -6.03326 L 8.62793,315.36683 H 8.114641 l -0.235259,0.45905 v 6.03326 l 1.261834,4.19703 z"
       style="fill:#d5ffd5;fill-opacity:1;stroke:none;stroke-width:0.0806944;stroke-opacity:1"
       inkscape:connector-curvature="0" />
    <path
       id="path4488-7-6-2-4"
       d="m 9.355089,326.05617 -0.34219,-4.19703 v -6.03326 l 0.128313,-0.45905 h 0.449126 l 0.106936,0.45905 v 6.03326 l -0.235257,4.19703 z"
       style="fill:#d5ffd5;fill-opacity:1;stroke:none;stroke-width:0.0806944;stroke-opacity:1"
       inkscape:connector-curvature="0" />
    <path
       id="path4490-7-8-2-4"
       d="m 9.355089,326.05617 -0.34219,-4.19703 v -6.03326 l 0.128313,-0.45905 H 8.627925 l -0.171101,0.45905 v 6.03326 l 0.791316,4.19703 z"
       style="fill:#d5ffd5;fill-opacity:1;stroke:none;stroke-width:0.0806944;stroke-opacity:1"
       inkscape:connector-curvature="0" />
    <path
       id="path4492-4-2-9-2"
       d="m 11.172971,315.36683 -1.817882,-0.24046 3.186651,0.24046 z"
       style="fill:#d5ffd5;fill-opacity:1;stroke:none;stroke-width:0.0806944;stroke-opacity:1"
       inkscape:connector-curvature="0" />
    <path
       id="path4494-40-8-5-8"
       d="m 9.355089,315.12637 0.47051,0.24046 h 1.347372 z"
       style="fill:#d5ffd5;fill-opacity:1;stroke:none;stroke-width:0.0806944;stroke-opacity:1"
       inkscape:connector-curvature="0" />
    <path
       id="path4496-0-1-9-6"
       d="m 9.355089,315.12637 -0.791318,0.24046 h 1.261828 z"
       style="fill:#d5ffd5;fill-opacity:1;stroke:none;stroke-width:0.0806944;stroke-opacity:1"
       inkscape:connector-curvature="0" />
    <path
       id="path4498-2-6-4-0"
       d="m 8.563771,315.36683 0.791318,-0.24046 -1.924833,0.24046 z"
       style="fill:#d5ffd5;fill-opacity:1;stroke:none;stroke-width:0.0806944;stroke-opacity:1"
       inkscape:connector-curvature="0" />
    <path
       id="path4500-1-1-2-4"
       d="m 9.355089,315.12637 -1.924833,0.24046 H 6.168425 Z"
       style="fill:#d5ffd5;fill-opacity:1;stroke:none;stroke-width:0.0806944;stroke-opacity:1"
       inkscape:connector-curvature="0" />
    <path
       id="path4502-9-9-6-7"
       d="m 6.168425,315.36683 h 6.373315 l -3.186651,-0.24046 -3.186664,0.24046"
       style="fill:#d5ffd5;fill-opacity:1;stroke:none;stroke-width:0.02153861px;stroke-linecap:round;stroke-linejoin:round;stroke-miterlimit:4;stroke-dasharray:none;stroke-opacity:1"
       inkscape:connector-curvature="0" />
    <path
       id="path4508-7-4-5-5"
       d="m 19.770559,321.85924 -0.06419,-0.0654 -0.363576,-0.0875 -0.406356,-0.0437 -0.491898,-0.0218 -0.278037,-0.0218 -0.299409,-0.0221 h -0.641611 l -0.342193,-0.0218 h -1.454308 l -0.363573,0.0218 h -0.641619 l -0.299413,0.0221 -0.534675,0.0218 -0.427737,0.0437 -0.342194,0.0654 -0.21387,0.0437 -0.06416,0.0655"
       style="fill:#d5ffd5;fill-opacity:1;stroke:none;stroke-width:0.02153861px;stroke-linecap:round;stroke-linejoin:round;stroke-miterlimit:4;stroke-dasharray:none;stroke-opacity:1"
       inkscape:connector-curvature="0" />
  </g>
</svg>
