<?xml version="1.0" encoding="UTF-8" standalone="no"?>
<!-- Created with Inkscape (http://www.inkscape.org/) -->

<svg
   xmlns:dc="http://purl.org/dc/elements/1.1/"
   xmlns:cc="http://creativecommons.org/ns#"
   xmlns:rdf="http://www.w3.org/1999/02/22-rdf-syntax-ns#"
   xmlns:svg="http://www.w3.org/2000/svg"
   xmlns="http://www.w3.org/2000/svg"
   xmlns:sodipodi="http://sodipodi.sourceforge.net/DTD/sodipodi-0.dtd"
   xmlns:inkscape="http://www.inkscape.org/namespaces/inkscape"
   width="201mm"
   height="54mm"
   viewBox="0 0 201 54"
   version="1.1"
   id="svg8"
   inkscape:export-filename="D:\Practicas JavaScript\Practicas JS\Perdura\Dosiplant-Mars\public\images\logo-dosiplant2.png"
   inkscape:export-xdpi="202.25926"
   inkscape:export-ydpi="202.25926"
   inkscape:version="0.92.4 (5da689c313, 2019-01-14)"
   sodipodi:docname="log-dosiplant.svg">
  <defs
     id="defs2">
	
	

		<linearGradient
   y2="353.5087"
   x2="500.51501"
   y1="353.5087"
   x1="0"
   gradientUnits="userSpaceOnUse"
   id="SVGID_1_"
   gradientTransform="matrix(0.26458333,0,0,0.26458333,-361.03473,3.1397631)">
			<stop
   id="stop817"
   style="stop-color:#3FC0F0"
   offset="1.511000e-03" />

			<stop
   id="stop819"
   style="stop-color:#3DB7EA"
   offset="0.0641" />

			<stop
   id="stop821"
   style="stop-color:#3B9BD6"
   offset="0.2913" />

			<stop
   id="stop823"
   style="stop-color:#3D83C4"
   offset="0.5058" />

			<stop
   id="stop825"
   style="stop-color:#4071B7"
   offset="0.7017" />

			<stop
   id="stop827"
   style="stop-color:#4167AF"
   offset="0.8725" />

			<stop
   id="stop829"
   style="stop-color:#4263AC"
   offset="0.9995" />

		</linearGradient>

		
		
	
			
			
			
		</defs>
  <sodipodi:namedview
     id="base"
     pagecolor="#ffffff"
     bordercolor="#666666"
     borderopacity="1.0"
     inkscape:pageopacity="0.0"
     inkscape:pageshadow="2"
     inkscape:zoom="0.35"
     inkscape:cx="-127.14286"
     inkscape:cy="560"
     inkscape:document-units="mm"
     inkscape:current-layer="layer1"
     showgrid="false"
     inkscape:window-width="1600"
     inkscape:window-height="837"
     inkscape:window-x="1358"
     inkscape:window-y="-8"
     inkscape:window-maximized="1" />
  <metadata
     id="metadata5">
    <rdf:RDF>
      <cc:Work
         rdf:about="">
        <dc:format>image/svg+xml</dc:format>
        <dc:type
           rdf:resource="http://purl.org/dc/dcmitype/StillImage" />
        <dc:title></dc:title>
      </cc:Work>
    </rdf:RDF>
  </metadata>
  <g
     inkscape:label="Capa 1"
     inkscape:groupmode="layer"
     id="layer1"
     transform="translate(0,-243)">
    <path
       style="fill:#0000ff;stroke-width:0.11907681"
       inkscape:connector-curvature="0"
       class="st8"
       d="m 29.886641,283.43102 -3.83546,-2.21483 v -1.46583 l -3.77831,2.14099 v -1.57062 c 1.2515,-0.72161 2.49943,-1.44559 3.74973,-2.166 l 3.86404,2.23268 z m -3.80569,-37.00312 c 6.74808,0 12.85672,2.73519 17.27804,7.1577 4.42133,4.42133 7.15772,10.53235 7.15772,17.27924 0,6.74808 -2.7352,12.85673 -7.15772,17.27805 -4.42132,4.42132 -10.52996,7.15771 -17.27804,7.15771 -6.74689,0 -12.85672,-2.73639 -17.27924,-7.15771 -4.42132,-4.42132 -7.1577,-10.53235 -7.1577,-17.27805 0,-6.7457 2.73638,-12.85672 7.1577,-17.27924 4.42252,-4.42251 10.53235,-7.1577 17.27924,-7.1577 z m -14.53928,42.31752 v -0.5037 l -0.3608,0.20243 c 0.11788,0.10003 0.24053,0.20005 0.3608,0.2977 z m -1.44559,-1.28127 1.41701,-0.81925 9.68809,5.59304 v 1.15267 c 0.35485,0.0774 0.71327,0.14646 1.07289,0.20242 v -0.42391 c 1.25149,-0.72161 2.49941,-1.4444 3.74973,-2.16601 l 3.86403,2.23269 v 0.35723 c 0.36081,-0.0595 0.71922,-0.1286 1.07289,-0.20242 v -1.15624 c 3.22341,-1.86356 6.44324,-3.72949 9.66785,-5.58947 l 1.4313,0.82401 c 0.10598,-0.10241 0.21196,-0.206 0.31794,-0.31198 0.14884,-0.14884 0.29531,-0.30007 0.44058,-0.45249 l -2.16124,-1.24792 v -1.46584 l -9.69643,5.49539 v -1.50274 c 3.22341,-1.86236 6.44324,-3.72711 9.66785,-5.58947 l 3.91525,2.26127 c 0.20599,-0.27507 0.40605,-0.5549 0.60014,-0.84068 l -4.48801,-2.58992 v -1.46584 l -9.69643,5.4954 v -1.50156 c 3.22342,-1.86356 6.44325,-3.72949 9.66785,-5.58947 l 5.87287,3.39131 c 0.16314,-0.30841 0.31794,-0.62039 0.46321,-0.93595 l -6.30869,-3.64375 v -1.46583 l -9.69643,5.4954 v -1.50276 c 3.22342,-1.86354 6.44325,-3.72591 9.66785,-5.58947 l 7.32442,4.22723 c 0.11193,-0.33817 0.21672,-0.67873 0.31436,-1.02167 l -7.6102,-4.39275 v -1.46583 l -9.69643,5.49539 v -1.50274 c 3.22342,-1.86237 6.44325,-3.72711 9.66785,-5.58947 l 8.22583,4.74878 c 0.1798,-1.15624 0.27269,-2.34462 0.27269,-3.55206 0,-6.36227 -2.57921,-12.12679 -6.74928,-16.29567 -4.17006,-4.17006 -9.93101,-6.74927 -16.29566,-6.74927 -6.36585,0 -12.12678,2.57802 -16.2968497,6.74927 -4.1700703,4.17007 -6.7492803,9.93101 -6.7492803,16.29567 0,1.20505 0.0917,2.38987 0.27269,3.54611 2.73638,-1.58372 5.4692,-3.16269 8.20915,-4.7464 l 9.68809,5.59304 v 3.04479 l -9.65951,-5.57518 v -1.46584 l -7.97934,4.52254 c 0.17386,0.80139 0.38939,1.58611 0.64421,2.35296 2.43631,-1.40868 4.87143,-2.81617 7.30774,-4.22127 l 9.68809,5.59303 v 3.0448 l -9.65951,-5.57518 v -1.46583 l -6.87192,3.895 c 0.29174,0.73232 0.62396,1.44798 0.98715,2.14338 1.95167,-1.12765 3.9033303,-2.25769 5.85619,-3.38535 3.22818,1.86236 6.45635,3.72829 9.68809,5.59185 v 3.04479 l -9.6607,-5.57399 v -1.46583 l -5.22509,2.96263 c 0.40129,0.66445 0.83235,1.30746 1.29675,1.92905 l 3.90095,-2.25175 9.68809,5.59185 v 3.04479 l -9.65951,-5.57518 v -1.46583 l -3.06861,1.73971 c 0.41796,0.49298 0.85617,0.97048 1.3110403,1.42654 0.1036,0.10241 0.206,0.20243 0.3119797,0.30603 z m 13.82958,6.34441 c 0.70136,0.0655 1.41106,0.0976 2.12671,0.10003 v -1.30508 z m 8.09722,-0.67517 c 3.20555,-0.85258 6.13841,-2.38153 8.63427,-4.4225 v -0.47155 z m -2.13624,-5.34892 -3.83546,-2.21602 v -1.46584 l -3.77831,2.141 v -1.57062 c 1.2515,-0.72161 2.49943,-1.4444 3.74973,-2.1672 l 3.86404,2.22912 v 3.0448 z m 0,4.24627 -3.83546,-2.21483 v -1.46583 l -3.77831,2.141 v -1.57181 c 1.2515,-0.72161 2.49943,-1.4456 3.74973,-2.1672 l 3.86404,2.22912 v 3.04479 z m 5.82524,-29.51319 v 3.0448 l -9.65951,-5.57517 v -1.46584 l -9.69642,5.49539 v -1.50155 c 3.22222,-1.86356 6.44205,-3.72711 9.66785,-5.58947 z m 0,4.24748 v 3.04479 l -9.65951,-5.57518 v -1.46583 l -9.69642,5.4954 v -1.50157 c 3.22222,-1.86355 6.44205,-3.72948 9.66785,-5.58946 z m 0,4.24985 v 0.24887 l -2.41845,1.40034 -7.23748,-4.1784 v -1.46584 l -8.56639,4.85357 -1.13004,-0.65254 v -0.20957 c 3.22341,-1.86356 6.44324,-3.72949 9.66784,-5.58947 3.22817,1.86355 6.45635,3.72949 9.68809,5.59304 z m -5.82524,3.91524 -3.83546,-2.21482 v -1.46584 l -4.86548,2.75663 -1.35152,-0.77876 c 2.06122,-1.19077 4.12482,-2.38392 6.18485,-3.57469 l 6.24201,3.60326 -1.83975,1.06455 -0.53583,0.30841 v 0.29769 0.004 z m 0,4.24748 -3.83546,-2.21603 v -1.46583 l -3.77831,2.141 v -1.57062 c 1.2515,-0.72161 2.49943,-1.4444 3.74973,-2.1672 l 3.86404,2.23031 v 3.04479 z"
       id="path834" />
    <g
       id="g854"
       transform="matrix(0.34079589,0,0,0.34079589,49.315173,79.10456)"
       style="fill:#000000">
				<path
   style="fill:#000000"
   inkscape:connector-curvature="0"
   class="st8"
   d="m 55,524.92 h 14.73 c 9.5,0 16.55,1.18 21.17,3.53 4.61,2.35 8.42,6.18 11.4,11.48 2.99,5.3 4.48,11.49 4.48,18.56 0,5.03 -0.84,9.66 -2.51,13.88 -1.67,4.22 -3.98,7.72 -6.92,10.5 -2.94,2.78 -6.13,4.71 -9.56,5.77 -3.43,1.07 -9.38,1.6 -17.84,1.6 H 55 Z m 12.34,11.99 v 41.21 h 5.77 c 5.68,0 9.81,-0.65 12.37,-1.96 2.56,-1.3 4.66,-3.5 6.28,-6.58 1.63,-3.08 2.44,-6.88 2.44,-11.38 0,-6.94 -1.94,-12.32 -5.82,-16.14 -3.49,-3.44 -9.1,-5.16 -16.83,-5.16 h -4.21 z"
   id="path836" />

				<path
   style="fill:#000000"
   inkscape:connector-curvature="0"
   class="st8"
   d="m 140,540.69 c 4.56,0 8.84,1.14 12.86,3.42 4.01,2.28 7.14,5.37 9.39,9.28 2.25,3.91 3.38,8.13 3.38,12.66 0,4.56 -1.13,8.82 -3.4,12.79 -2.27,3.97 -5.35,7.07 -9.26,9.3 -3.91,2.24 -8.22,3.35 -12.92,3.35 -6.93,0 -12.84,-2.47 -17.74,-7.4 -4.9,-4.93 -7.35,-10.92 -7.35,-17.96 0,-7.55 2.77,-13.84 8.31,-18.88 4.85,-4.37 10.43,-6.56 16.73,-6.56 z m 0.2,11.41 c -3.77,0 -6.9,1.31 -9.41,3.93 -2.51,2.62 -3.76,5.97 -3.76,10.06 0,4.2 1.24,7.61 3.71,10.21 2.48,2.61 5.61,3.91 9.41,3.91 3.8,0 6.95,-1.32 9.48,-3.95 2.52,-2.63 3.78,-6.03 3.78,-10.17 0,-4.15 -1.24,-7.51 -3.71,-10.1 -2.48,-2.59 -5.64,-3.89 -9.5,-3.89 z"
   id="path838" />

				<path
   style="fill:#000000"
   inkscape:connector-curvature="0"
   class="st8"
   d="m 205.11,548.68 -7.51,7.51 c -3.05,-3.02 -5.82,-4.53 -8.3,-4.53 -1.36,0 -2.43,0.29 -3.2,0.87 -0.77,0.58 -1.15,1.29 -1.15,2.15 0,0.65 0.24,1.25 0.73,1.8 0.49,0.55 1.69,1.3 3.62,2.24 l 4.44,2.22 c 4.68,2.31 7.89,4.66 9.64,7.06 1.75,2.4 2.62,5.21 2.62,8.44 0,4.29 -1.58,7.88 -4.73,10.75 -3.15,2.87 -7.38,4.31 -12.68,4.31 -7.05,0 -12.67,-2.75 -16.88,-8.26 l 7.46,-8.13 c 1.42,1.66 3.09,3 5,4.02 1.91,1.02 3.6,1.53 5.09,1.53 1.6,0 2.89,-0.38 3.86,-1.16 0.98,-0.77 1.47,-1.66 1.47,-2.66 0,-1.86 -1.76,-3.69 -5.29,-5.46 l -4.09,-2.04 c -7.82,-3.94 -11.72,-8.87 -11.72,-14.79 0,-3.82 1.47,-7.08 4.42,-9.79 2.95,-2.71 6.71,-4.06 11.3,-4.06 3.14,0 6.09,0.69 8.86,2.06 2.77,1.37 5.12,3.35 7.04,5.92 z"
   id="path840" />

				<path
   style="fill:#000000"
   inkscape:connector-curvature="0"
   class="st8"
   d="m 220.28,522.03 c 2.13,0 3.95,0.77 5.47,2.31 1.52,1.54 2.28,3.41 2.28,5.6 0,2.16 -0.75,4 -2.26,5.53 -1.51,1.52 -3.31,2.29 -5.4,2.29 -2.16,0 -3.99,-0.78 -5.51,-2.33 -1.52,-1.55 -2.28,-3.44 -2.28,-5.66 0,-2.13 0.75,-3.95 2.26,-5.46 1.5,-1.52 3.31,-2.28 5.44,-2.28 z m -6.06,19.9 h 12.12 v 48.32 h -12.12 z"
   id="path842" />

				<path
   style="fill:#000000"
   inkscape:connector-curvature="0"
   class="st8"
   d="m 238.64,524.92 h 13.19 c 7.14,0 12.28,0.66 15.43,1.98 3.15,1.32 5.64,3.45 7.46,6.4 1.82,2.95 2.73,6.48 2.73,10.59 0,4.56 -1.19,8.35 -3.58,11.37 -2.38,3.02 -5.62,5.12 -9.7,6.31 -2.4,0.68 -6.77,1.02 -13.1,1.02 v 27.67 h -12.44 v -65.34 z m 12.44,25.54 h 3.95 c 3.11,0 5.27,-0.22 6.48,-0.67 1.21,-0.45 2.17,-1.18 2.86,-2.21 0.7,-1.02 1.04,-2.26 1.04,-3.72 0,-2.53 -0.98,-4.37 -2.93,-5.53 -1.42,-0.86 -4.06,-1.29 -7.9,-1.29 h -3.51 v 13.42 z"
   id="path844" />

				<path
   style="fill:#000000"
   inkscape:connector-curvature="0"
   class="st8"
   d="m 286.96,523.28 h 12.12 v 66.97 h -12.12 z"
   id="path846" />

				<path
   style="fill:#000000"
   inkscape:connector-curvature="0"
   class="st8"
   d="m 345.77,541.93 h 12.12 v 48.32 h -12.12 v -5.11 c -2.37,2.25 -4.74,3.87 -7.12,4.86 -2.38,0.99 -4.96,1.49 -7.74,1.49 -6.24,0 -11.64,-2.42 -16.19,-7.26 -4.55,-4.84 -6.83,-10.86 -6.83,-18.05 0,-7.46 2.2,-13.57 6.61,-18.34 4.41,-4.77 9.76,-7.15 16.06,-7.15 2.9,0 5.62,0.55 8.16,1.64 2.54,1.09 4.89,2.74 7.05,4.93 z m -12.75,9.95 c -3.75,0 -6.86,1.32 -9.34,3.97 -2.48,2.65 -3.72,6.05 -3.72,10.19 0,4.17 1.26,7.61 3.78,10.3 2.52,2.69 5.63,4.04 9.32,4.04 3.81,0 6.96,-1.32 9.47,-3.97 2.51,-2.65 3.76,-6.12 3.76,-10.41 0,-4.2 -1.25,-7.61 -3.76,-10.21 -2.5,-2.61 -5.67,-3.91 -9.51,-3.91 z"
   id="path848" />

				<path
   style="fill:#000000"
   inkscape:connector-curvature="0"
   class="st8"
   d="m 370.15,541.93 h 12.12 v 4.95 c 2.75,-2.32 5.24,-3.93 7.47,-4.84 2.23,-0.91 4.52,-1.36 6.85,-1.36 4.79,0 8.85,1.67 12.2,5.02 2.81,2.84 4.21,7.05 4.21,12.61 v 31.93 h -11.99 v -21.16 c 0,-5.77 -0.26,-9.6 -0.78,-11.49 -0.52,-1.89 -1.42,-3.33 -2.7,-4.32 -1.29,-0.99 -2.87,-1.49 -4.76,-1.49 -2.45,0 -4.56,0.82 -6.31,2.46 -1.76,1.64 -2.98,3.91 -3.66,6.81 -0.35,1.51 -0.53,4.78 -0.53,9.8 v 19.39 h -12.12 z"
   id="path850" />

				<path
   style="fill:#000000"
   inkscape:connector-curvature="0"
   class="st8"
   d="m 426.2,524.12 h 12.12 v 17.81 h 7.2 v 10.44 h -7.2 v 37.88 H 426.2 v -37.88 h -6.22 v -10.44 h 6.22 z"
   id="path852" />

			</g>
    <g
       id="g880"
       transform="matrix(0.34079589,0,0,0.34079589,49.315173,79.10456)"
       style="fill:#000000">
				<path
   style="fill:#000000"
   inkscape:connector-curvature="0"
   class="st8"
   d="m 118.64,621.05 h -3.24 v -16.59 h 3.24 z"
   id="path856" />

				<path
   style="fill:#000000"
   inkscape:connector-curvature="0"
   class="st8"
   d="m 134.61,604.46 h 3.82 l 6.17,12.71 -0.27,0.3 v -13 h 2.99 v 16.57 h -3.85 l -6.15,-12.51 0.27,-0.3 v 12.81 h -2.99 v -16.58 z"
   id="path858" />

				<path
   style="fill:#000000"
   inkscape:connector-curvature="0"
   class="st8"
   d="m 163.52,604.46 h 3.12 v 16.59 h -3.12 z m 1.57,13.58 h 3.98 c 1.03,0 1.82,-0.25 2.38,-0.74 0.56,-0.49 0.84,-1.19 0.84,-2.1 v -4.88 c 0,-0.9 -0.28,-1.6 -0.84,-2.1 -0.56,-0.49 -1.36,-0.74 -2.38,-0.74 h -3.98 v -3.01 H 169 c 1.38,0 2.56,0.23 3.54,0.7 0.98,0.46 1.72,1.14 2.23,2.03 0.51,0.89 0.77,1.96 0.77,3.22 v 4.7 c 0,1.19 -0.25,2.24 -0.74,3.13 -0.49,0.89 -1.23,1.58 -2.21,2.08 -0.98,0.49 -2.18,0.74 -3.6,0.74 h -3.9 z"
   id="path860" />

				<path
   style="fill:#000000"
   inkscape:connector-curvature="0"
   class="st8"
   d="m 193.94,620.5 c -0.91,-0.48 -1.59,-1.19 -2.06,-2.11 -0.47,-0.92 -0.71,-2.04 -0.71,-3.34 v -10.59 h 3.12 v 10.67 c 0,0.95 0.26,1.69 0.77,2.21 0.51,0.52 1.23,0.79 2.16,0.79 0.94,0 1.66,-0.26 2.17,-0.79 0.51,-0.52 0.77,-1.26 0.77,-2.21 v -10.67 h 3.13 v 10.59 c 0,1.3 -0.24,2.41 -0.71,3.34 -0.47,0.92 -1.17,1.63 -2.08,2.11 -0.91,0.48 -2,0.72 -3.28,0.72 -1.29,0 -2.38,-0.24 -3.28,-0.72 z"
   id="path862" />

				<path
   style="fill:#000000"
   inkscape:connector-curvature="0"
   class="st8"
   d="m 222.14,620.98 c -0.76,-0.16 -1.47,-0.39 -2.13,-0.7 -0.67,-0.31 -1.26,-0.68 -1.79,-1.11 l 1.45,-2.58 c 0.64,0.52 1.37,0.93 2.21,1.22 0.84,0.29 1.7,0.43 2.58,0.43 1.02,0 1.81,-0.17 2.37,-0.52 0.56,-0.35 0.84,-0.83 0.84,-1.47 v -0.01 c 0,-0.44 -0.12,-0.79 -0.37,-1.05 -0.25,-0.26 -0.58,-0.45 -0.98,-0.57 -0.4,-0.12 -0.92,-0.23 -1.55,-0.33 -0.02,-0.01 -0.04,-0.01 -0.06,-0.01 -0.02,0 -0.04,0 -0.06,-0.01 l -0.25,-0.03 c -1.11,-0.17 -2.03,-0.39 -2.76,-0.66 -0.73,-0.26 -1.35,-0.72 -1.86,-1.38 -0.51,-0.66 -0.77,-1.59 -0.77,-2.8 v -0.01 c 0,-1.07 0.24,-1.99 0.72,-2.75 0.48,-0.76 1.17,-1.34 2.09,-1.74 0.92,-0.4 2.01,-0.6 3.31,-0.6 0.59,0 1.2,0.07 1.82,0.21 0.62,0.14 1.23,0.33 1.82,0.59 0.59,0.26 1.16,0.57 1.69,0.94 l -1.32,2.65 c -0.64,-0.44 -1.31,-0.78 -2,-1.03 -0.7,-0.24 -1.36,-0.37 -2,-0.37 -0.96,0 -1.7,0.16 -2.22,0.47 -0.52,0.32 -0.79,0.76 -0.79,1.33 v 0.01 c 0,0.48 0.14,0.86 0.41,1.13 0.27,0.28 0.61,0.48 1.02,0.61 0.4,0.13 0.97,0.27 1.7,0.41 0.03,0.01 0.06,0.01 0.09,0.02 0.03,0.01 0.06,0.01 0.09,0.02 0.04,0.01 0.09,0.02 0.13,0.03 0.04,0.01 0.08,0.02 0.13,0.03 1.05,0.21 1.93,0.45 2.63,0.75 0.7,0.29 1.29,0.76 1.76,1.42 0.47,0.65 0.71,1.54 0.71,2.66 v 0.02 c 0,1.06 -0.25,1.96 -0.74,2.71 -0.5,0.75 -1.22,1.33 -2.16,1.72 -0.95,0.4 -2.09,0.59 -3.42,0.59 -0.81,0 -1.58,-0.08 -2.34,-0.24 z"
   id="path864" />

				<path
   style="fill:#000000"
   inkscape:connector-curvature="0"
   class="st8"
   d="m 243.9,604.46 h 12.16 v 3.01 H 243.9 Z m 4.51,1.36 h 3.13 v 15.23 h -3.13 z"
   id="path866" />

				<path
   style="fill:#000000"
   inkscape:connector-curvature="0"
   class="st8"
   d="m 269.97,604.45 h 3.12 v 16.6 h -3.12 z m 1.25,6.92 h 5.77 c 0.32,0 0.6,-0.08 0.84,-0.24 0.24,-0.16 0.43,-0.39 0.57,-0.68 0.13,-0.3 0.2,-0.64 0.21,-1.03 0,-0.39 -0.07,-0.73 -0.2,-1.03 -0.13,-0.3 -0.32,-0.52 -0.57,-0.68 -0.24,-0.16 -0.53,-0.24 -0.86,-0.24 h -5.77 v -3.01 h 6.02 c 0.91,0 1.71,0.21 2.41,0.62 0.7,0.41 1.23,0.99 1.61,1.74 0.38,0.75 0.57,1.62 0.57,2.61 0,0.99 -0.19,1.86 -0.57,2.61 -0.38,0.75 -0.92,1.33 -1.61,1.74 -0.69,0.41 -1.5,0.62 -2.4,0.62 h -6.02 z m 3.49,2.49 3.34,-0.52 4.47,7.71 h -3.79 z"
   id="path868" />

				<path
   style="fill:#000000"
   inkscape:connector-curvature="0"
   class="st8"
   d="m 300.76,621.05 h -3.24 v -16.59 h 3.24 z"
   id="path870" />

				<path
   style="fill:#000000"
   inkscape:connector-curvature="0"
   class="st8"
   d="m 321.47,604.46 h 1.98 l 6.34,16.59 h -3.36 l -3.97,-11.33 -3.97,11.33 h -3.37 z m -3.29,10.92 h 8.72 v 3.01 h -8.72 z"
   id="path872" />

				<path
   style="fill:#000000"
   inkscape:connector-curvature="0"
   class="st8"
   d="m 343.83,615.63 5.11,-11.16 h 3.54 l -4.97,11.02 h 7.45 v 3.01 h -11.12 v -2.87 z m 6.7,-4.33 h 3.13 v 9.76 h -3.13 z"
   id="path874" />

				<path
   style="fill:#000000"
   inkscape:connector-curvature="0"
   class="st8"
   d="m 363.22,617.92 h 3.13 v 3.13 h -3.13 z"
   id="path876" />

				<path
   style="fill:#000000"
   inkscape:connector-curvature="0"
   class="st8"
   d="m 376.46,619.97 c -0.84,-0.83 -1.27,-1.99 -1.27,-3.46 v -7.54 c 0,-1.49 0.42,-2.65 1.27,-3.47 0.85,-0.82 2.08,-1.24 3.69,-1.24 1.62,0 2.85,0.41 3.7,1.23 0.84,0.82 1.27,1.98 1.27,3.48 v 7.54 c 0,1.49 -0.42,2.65 -1.27,3.47 -0.85,0.82 -2.08,1.24 -3.69,1.24 -1.63,0 -2.86,-0.42 -3.7,-1.25 z m 5.08,-2.41 c 0.3,-0.43 0.44,-1.05 0.44,-1.85 v -5.94 c 0,-0.81 -0.15,-1.42 -0.44,-1.85 -0.3,-0.43 -0.76,-0.64 -1.39,-0.64 -0.63,0 -1.1,0.22 -1.39,0.64 -0.3,0.43 -0.44,1.05 -0.44,1.85 v 5.94 c 0,0.81 0.15,1.42 0.44,1.85 0.3,0.43 0.76,0.64 1.39,0.64 0.63,0 1.09,-0.21 1.39,-0.64 z"
   id="path878" />

			</g>
  </g>
  <style
     id="style815"
     type="text/css">
	.st0{fill:url(#SVGID_1_);}
	.st1{fill:url(#SVGID_2_);}
	.st2{fill:url(#SVGID_3_);}
	.st3{fill:url(#SVGID_4_);}
	.st4{fill:url(#SVGID_5_);}
	.st5{fill:url(#SVGID_6_);}
	.st6{fill:url(#SVGID_7_);}
	.st7{fill:#FAFAFA;}
	.st8{fill:#FFFFFF;}
	.st9{fill:url(#SVGID_8_);}
	.st10{fill:url(#SVGID_9_);}
	.st11{fill:url(#SVGID_10_);}
	.st12{fill:url(#SVGID_11_);}
	.st13{fill:url(#SVGID_12_);}
	.st14{fill:url(#SVGID_13_);}
	.st15{fill:url(#SVGID_14_);}
	.st16{fill:url(#SVGID_15_);}
	.st17{fill:url(#SVGID_16_);}
	.st18{fill:url(#SVGID_17_);}
	.st19{fill:url(#SVGID_18_);}
	.st20{fill:url(#SVGID_19_);}
	.st21{fill:url(#SVGID_20_);}
	.st22{fill:url(#SVGID_21_);}
	.st23{fill:url(#SVGID_22_);}
	.st24{fill:url(#SVGID_23_);}
	.st25{fill:url(#SVGID_24_);}
	.st26{fill:url(#SVGID_25_);}
	.st27{fill:url(#SVGID_26_);}
	.st28{fill:url(#SVGID_27_);}
	.st29{fill:url(#SVGID_28_);}
	.st30{fill:url(#SVGID_29_);}
	.st31{fill:url(#SVGID_30_);}
	.st32{fill:url(#SVGID_31_);}
	.st33{fill:url(#SVGID_32_);}
	.st34{fill:url(#SVGID_33_);}
	.st35{fill:url(#SVGID_34_);}
	.st36{fill:url(#SVGID_35_);}
	.st37{fill:url(#SVGID_36_);}
	.st38{fill:url(#SVGID_37_);}
	.st39{fill:url(#SVGID_38_);}
	.st40{fill:url(#SVGID_39_);}
	.st41{fill:url(#SVGID_40_);}
	.st42{fill:url(#SVGID_41_);}
	.st43{fill:url(#SVGID_42_);}
	.st44{fill:url(#SVGID_43_);}
	.st45{fill:url(#SVGID_44_);}
	.st46{fill:url(#SVGID_45_);}
	.st47{fill:url(#SVGID_46_);}
	.st48{fill:url(#SVGID_47_);}
	.st49{fill:url(#SVGID_48_);}
	.st50{fill:url(#SVGID_49_);}
	.st51{fill:url(#SVGID_50_);}
	.st52{fill:url(#SVGID_51_);}
	.st53{fill:url(#SVGID_52_);}
	.st54{fill:url(#SVGID_53_);}
	.st55{fill:url(#SVGID_54_);}
	.st56{fill:url(#SVGID_55_);}
	.st57{fill:url(#SVGID_56_);}
	.st58{fill:url(#SVGID_57_);}
	.st59{fill:url(#SVGID_58_);}
	.st60{fill:url(#SVGID_59_);}
	.st61{fill:url(#SVGID_60_);}
	.st62{fill:url(#SVGID_61_);}
	.st63{fill:url(#SVGID_62_);}
	.st64{fill:url(#SVGID_63_);}
	.st65{fill:url(#SVGID_64_);}
	.st66{fill:url(#SVGID_65_);}
	.st67{fill:url(#SVGID_66_);}
	.st68{fill:url(#SVGID_67_);}
	.st69{fill:url(#SVGID_68_);}
	.st70{fill:url(#SVGID_69_);}
	.st71{fill:url(#SVGID_70_);}
	.st72{fill:url(#SVGID_71_);}
	.st73{fill:url(#SVGID_72_);}
	.st74{fill:url(#SVGID_73_);}
	.st75{fill:url(#SVGID_74_);}
	.st76{fill:url(#SVGID_75_);}
	.st77{fill:url(#SVGID_76_);}
	.st78{fill:url(#SVGID_77_);}
	.st79{fill:url(#SVGID_78_);}
	.st80{fill:url(#SVGID_79_);}
	.st81{fill:url(#SVGID_80_);}
	.st82{fill:url(#SVGID_81_);}
	.st83{fill:url(#SVGID_82_);}
	.st84{fill:url(#SVGID_83_);}
	.st85{fill:url(#SVGID_84_);}
	.st86{fill:url(#SVGID_85_);}
	.st87{fill:url(#SVGID_86_);}
	.st88{fill:url(#SVGID_87_);}
	.st89{fill:url(#SVGID_88_);}
	.st90{fill:url(#SVGID_89_);}
	.st91{fill:url(#SVGID_90_);}
	.st92{fill:url(#SVGID_91_);}
	.st93{fill:url(#SVGID_92_);}
	.st94{fill:url(#SVGID_93_);}
	.st95{fill:url(#SVGID_94_);}
	.st96{fill:url(#SVGID_95_);}
	.st97{fill:url(#SVGID_96_);}
	.st98{fill:url(#SVGID_97_);}
	.st99{fill:url(#SVGID_98_);}
	.st100{fill:url(#SVGID_99_);}
	.st101{fill:url(#SVGID_100_);}
	.st102{fill:url(#SVGID_101_);}
	.st103{fill:url(#SVGID_102_);}
	.st104{fill:url(#SVGID_103_);}
	.st105{fill:url(#SVGID_104_);}
	.st106{fill:url(#SVGID_105_);}
	.st107{fill:url(#SVGID_106_);}
	.st108{fill:url(#SVGID_107_);}
	.st109{fill:url(#SVGID_108_);}
	.st110{fill:url(#SVGID_109_);}
	.st111{fill:url(#SVGID_110_);}
	.st112{fill:url(#SVGID_111_);}
	.st113{fill:url(#SVGID_112_);}
	.st114{fill:url(#SVGID_113_);}
	.st115{fill:url(#SVGID_114_);}
	.st116{fill:url(#SVGID_115_);}
	.st117{fill:url(#SVGID_116_);}
	.st118{fill:url(#SVGID_117_);}
	.st119{fill:url(#SVGID_118_);}
	.st120{fill:url(#SVGID_119_);}
	.st121{fill:url(#SVGID_120_);}
	.st122{fill:url(#SVGID_121_);}
	.st123{fill:url(#SVGID_122_);}
	.st124{fill:url(#SVGID_123_);}
	.st125{fill:url(#SVGID_124_);}
	.st126{fill:url(#SVGID_125_);}
	.st127{fill:url(#SVGID_126_);}
	.st128{fill:url(#SVGID_127_);}
	.st129{fill:url(#SVGID_128_);}
	.st130{fill:url(#SVGID_129_);}
	.st131{fill:url(#SVGID_130_);}
	.st132{fill:url(#SVGID_131_);}
	.st133{fill:url(#SVGID_132_);}
	.st134{fill:url(#SVGID_133_);}
	.st135{fill:url(#SVGID_134_);}
	.st136{fill:url(#SVGID_135_);}
	.st137{fill:url(#SVGID_136_);}
	.st138{fill:url(#SVGID_137_);}
	.st139{fill:url(#SVGID_138_);}
	.st140{fill:url(#SVGID_139_);}
	.st141{fill:url(#SVGID_140_);}
	.st142{fill:url(#SVGID_141_);}
	.st143{fill:url(#SVGID_142_);}
	.st144{fill:url(#SVGID_143_);}
	.st145{fill:url(#SVGID_144_);}
	.st146{fill:url(#SVGID_145_);}
	.st147{fill:url(#SVGID_146_);}
	.st148{fill:url(#SVGID_147_);}
	.st149{fill:url(#SVGID_148_);}
	.st150{fill:url(#SVGID_149_);}
	.st151{fill:url(#SVGID_150_);}
	.st152{fill:url(#SVGID_151_);}
	.st153{fill:url(#SVGID_152_);}
	.st154{fill:url(#SVGID_153_);}
	.st155{fill:url(#SVGID_154_);}
	.st156{fill:url(#SVGID_155_);}
	.st157{fill:url(#SVGID_156_);}
	.st158{fill:url(#SVGID_157_);}
	.st159{fill:url(#SVGID_158_);}
	.st160{fill:url(#SVGID_159_);}
	.st161{fill:url(#SVGID_160_);}
	.st162{fill:url(#SVGID_161_);}
	.st163{fill:#020304;}
</style>
</svg>
